<?xml version="1.0" encoding="utf-8"?>
<!-- Generator: Adobe Illustrator 16.0.0, SVG Export Plug-In . SVG Version: 6.00 Build 0)  -->
<!DOCTYPE svg PUBLIC "-//W3C//DTD SVG 1.1//EN" "http://www.w3.org/Graphics/SVG/1.1/DTD/svg11.dtd">
<svg version="1.1" id="Layer_1" xmlns="http://www.w3.org/2000/svg" xmlns:xlink="http://www.w3.org/1999/xlink" x="0px" y="0px"
	 width="110px" height="30px" viewBox="0 0 110 30" enable-background="new 0 0 110 30" xml:space="preserve">
<g>
	<g>
		<path fill="#FFFFFF" d="M11.649,29.356c-2.169,0-3.893-0.605-5.168-1.818c-1.275-1.212-1.915-2.776-1.915-4.689v-8.288H1.696
			v-4.327h2.871V5.045l5.379-0.572v5.761h2.873v4.327H9.945v7.522c0,1.02,0.213,1.739,0.641,2.153
			c0.426,0.415,0.98,0.622,1.657,0.622c0.205,0,0.682-0.082,1.436-0.249l1.129,3.848C13.89,29.057,12.837,29.356,11.649,29.356z"/>
		<path fill="#FFFFFF" d="M21.438,12.32c1.365-1.403,3.03-2.106,4.997-2.106c0.625,0,1.218,0.052,1.78,0.154l-0.842,5.283
			c-0.625-0.562-1.519-0.86-2.68-0.9c-1.302,0.09-2.387,1.035-3.254,2.833v11.772h-5.36V10.77l5.36-0.573V12.32z"/>
		<path fill="#FFFFFF" d="M29.158,12.512c2.425-1.531,5.231-2.298,8.422-2.298c2.297,0,4.116,0.639,5.456,1.916
			c1.34,1.274,2.01,3.188,2.01,5.741v11.485h-5.36v-1.531c-1.556,1.021-2.96,1.531-4.211,1.531c-2.552,0-4.466-0.541-5.742-1.626
			c-1.276-1.086-1.914-2.586-1.914-4.499c0-1.787,0.602-3.383,1.809-4.786c1.205-1.403,3.155-2.104,5.847-2.104
			c1.24,0,2.642,0.383,4.211,1.147v-0.574c-0.025-1.403-1.046-2.17-3.062-2.298c-2.297,0-4.083,0.385-5.36,1.148L29.158,12.512z
			 M39.686,23.614v-2.163c-0.509-0.982-1.722-1.475-3.636-1.475c-2.298,0.257-3.51,1.149-3.639,2.68
			c0.129,1.521,1.341,2.343,3.639,2.472C37.964,25.128,39.177,24.622,39.686,23.614z"/>
		<path fill="#FFFFFF" d="M48.787,26.964c-1.914-1.594-2.871-3.668-2.871-6.221v-1.914c0-2.553,0.957-4.626,2.871-6.222
			s4.154-2.394,6.72-2.394c3.062,0,5.608,1.086,7.637,3.256l-3.828,2.871c-1.148-1.148-2.425-1.725-3.828-1.725
			c-1.276,0-2.393,0.513-3.351,1.533c-0.956,1.021-1.435,2.232-1.435,3.637c0,1.403,0.448,2.616,1.34,3.638
			c0.893,1.019,2.042,1.531,3.446,1.531c1.403,0,2.68-0.575,3.828-1.724l3.828,2.871c-2.042,2.169-4.593,3.254-7.656,3.254
			C52.935,29.356,50.701,28.561,48.787,26.964z"/>
		<path fill="#FFFFFF" d="M64.529,0.644h5.74v16.252l5.496-6.682h6.451l-7.16,8.596l9.074,10.547h-7.467L70.27,21.72v7.637h-5.74
			V0.644z"/>
	</g>
	<path fill="#10EDCE" d="M86.318,3.697c0.511-0.519,1.199-0.774,2.068-0.774c0.918,0,1.633,0.256,2.144,0.774
		c0.51,0.516,0.765,1.158,0.765,1.923c0,0.766-0.255,1.404-0.765,1.914c-0.511,0.511-1.212,0.767-2.106,0.767
		c-0.894,0-1.595-0.256-2.105-0.767c-0.51-0.51-0.766-1.148-0.766-1.914C85.553,4.855,85.809,4.213,86.318,3.697z M88.92,29.356
		c1.201,0,2.184-0.982,2.184-2.184V12.38c0-1.201-0.982-2.184-2.184-2.184h-0.992c-1.201,0-2.184,0.982-2.184,2.184v14.793
		c0,1.201,0.982,2.184,2.184,2.184H88.92z"/>
	<path fill="#10EDCE" d="M94.823,3.697c0.511-0.519,1.199-0.774,2.067-0.774c0.918,0,1.633,0.256,2.145,0.774
		C99.545,4.213,99.8,4.855,99.8,5.62c0,0.766-0.255,1.404-0.765,1.914c-0.512,0.511-1.213,0.767-2.106,0.767
		s-1.595-0.256-2.105-0.767c-0.511-0.51-0.765-1.148-0.765-1.914C94.059,4.855,94.312,4.213,94.823,3.697z M97.424,29.356
		c1.201,0,2.185-0.982,2.185-2.184V12.38c0-1.201-0.983-2.184-2.185-2.184h-0.992c-1.201,0-2.184,0.982-2.184,2.184v14.793
		c0,1.201,0.982,2.184,2.184,2.184H97.424z"/>
	<path fill="#10EDCE" d="M103.328,3.697c0.51-0.519,1.198-0.774,2.067-0.774c0.918,0,1.632,0.256,2.144,0.774
		c0.51,0.516,0.766,1.158,0.766,1.923c0,0.766-0.256,1.404-0.766,1.914c-0.512,0.511-1.213,0.767-2.105,0.767
		c-0.895,0-1.596-0.256-2.105-0.767c-0.512-0.51-0.766-1.148-0.766-1.914C102.562,4.855,102.816,4.213,103.328,3.697z
		 M105.93,29.356c1.201,0,2.184-0.982,2.184-2.184V12.38c0-1.201-0.982-2.184-2.184-2.184h-0.993c-1.201,0-2.184,0.982-2.184,2.184
		v14.793c0,1.201,0.982,2.184,2.184,2.184H105.93z"/>
</g>
</svg>
